<?xml version="1.0" encoding="UTF-8" standalone="no"?>
<!-- Created with Inkscape (http://www.inkscape.org/) -->

<svg
   xmlns:dc="http://purl.org/dc/elements/1.1/"
   xmlns:cc="http://creativecommons.org/ns#"
   xmlns:rdf="http://www.w3.org/1999/02/22-rdf-syntax-ns#"
   xmlns:svg="http://www.w3.org/2000/svg"
   xmlns="http://www.w3.org/2000/svg"
   xmlns:sodipodi="http://sodipodi.sourceforge.net/DTD/sodipodi-0.dtd"
   xmlns:inkscape="http://www.inkscape.org/namespaces/inkscape"
   width="220.84334mm"
   height="220.84334mm"
   viewBox="0 0 220.84334 220.84334"
   version="1.1"
   id="svg8"
   inkscape:version="0.92.1 r"
   sodipodi:docname="syng.svg">
  <defs
     id="defs2" />
  <sodipodi:namedview
     id="base"
     pagecolor="#ffffff"
     bordercolor="#666666"
     borderopacity="1.0"
     inkscape:pageopacity="0.0"
     inkscape:pageshadow="2"
     inkscape:zoom="0.49497475"
     inkscape:cx="434.31033"
     inkscape:cy="420.84221"
     inkscape:document-units="mm"
     inkscape:current-layer="layer1"
     showgrid="false"
     inkscape:window-width="1366"
     inkscape:window-height="752"
     inkscape:window-x="0"
     inkscape:window-y="16"
     inkscape:window-maximized="0" />
  <metadata
     id="metadata5">
    <rdf:RDF>
      <cc:Work
         rdf:about="">
        <dc:format>image/svg+xml</dc:format>
        <dc:type
           rdf:resource="http://purl.org/dc/dcmitype/StillImage" />
        <dc:title />
      </cc:Work>
    </rdf:RDF>
  </metadata>
  <g
     inkscape:label="Layer 1"
     inkscape:groupmode="layer"
     id="layer1"
     transform="translate(-12.509633,-3.1621139)">
    <path
       style="fill:none;fill-rule:evenodd;stroke:#000000;stroke-width:5.00347233;stroke-linecap:butt;stroke-linejoin:miter;stroke-miterlimit:4;stroke-dasharray:none;stroke-opacity:1"
       d="m 47.049233,173.06797 c -30.184229,29.03803 -19.486028,71.44878 49.670242,33.24089 69.156315,-38.20791 84.057385,8.02365 120.354875,5.73118"
       id="path4496"
       inkscape:connector-curvature="0" />
    <path
       inkscape:connector-curvature="0"
       style="opacity:1;fill:#008000;fill-opacity:1;fill-rule:nonzero;stroke:#000000;stroke-width:3.34178877;stroke-linejoin:miter;stroke-miterlimit:4;stroke-dasharray:none;stroke-opacity:1"
       d="m 90.419108,161.75799 c -1.499334,-0.87167 -2.992827,-1.76302 -4.453224,-2.738 -1.771132,-1.1825 -3.508618,-2.43778 -5.20596,-3.76114 -1.697313,-1.32325 -3.352365,-2.71293 -4.958946,-4.16382 -1.134734,-1.0246 -2.24443,-2.07897 -3.327035,-3.16114 -1.532726,-1.53243 -3.00948,-3.11894 -4.424722,-4.75359 -1.415408,-1.6348 -2.767517,-3.3157 -4.051272,-5.03641 -1.283771,-1.72057 -2.497589,-3.47879 -3.636903,-5.26808 -0.612225,-0.96165 -1.144556,-1.95041 -1.712299,-2.92765 l -21.653688,37.29898 16.149919,16.14992 z"
       id="path8594" />
    <path
       inkscape:connector-curvature="0"
       style="opacity:1;fill:#333333;fill-opacity:1;fill-rule:nonzero;stroke:#000000;stroke-width:3.34178877;stroke-linejoin:miter;stroke-miterlimit:4;stroke-dasharray:none;stroke-opacity:1"
       d="M 159.20708,29.087272 59.067504,129.22685 l -0.418757,0.72131 c 0.567743,0.97724 1.100074,1.966 1.712299,2.92765 1.139314,1.78929 2.353132,3.54751 3.636903,5.26808 1.283755,1.72071 2.635864,3.40161 4.051272,5.03641 1.415242,1.63465 2.891996,3.22116 4.424722,4.75359 1.082575,1.0822 2.192301,2.13654 3.327035,3.16114 1.606581,1.45089 3.261633,2.84057 4.958946,4.16382 1.697342,1.32336 3.434828,2.57864 5.20596,3.76114 1.460397,0.97498 2.95389,1.86633 4.453224,2.738 l 0.74616,-0.43338 L 191.30485,61.185037 Z"
       id="rect4521" />
    <path
       style="opacity:1;fill:#008000;fill-opacity:1;fill-rule:nonzero;stroke:#000000;stroke-width:3;stroke-linejoin:miter;stroke-miterlimit:4;stroke-dasharray:none;stroke-opacity:1"
       d="m 132.94491,19.043887 a 48.380954,48.380954 0 0 0 0.21085,68.208073 48.380954,48.380954 0 0 0 68.18176,0.204997 65.0119,46.680061 45 0 1 -3.84518,-0.498052 65.0119,46.680061 45 0 1 -5.62984,-1.274911 65.0119,46.680061 45 0 1 -5.65688,-1.817903 65.0119,46.680061 45 0 1 -5.62764,-2.34482 65.0119,46.680061 45 0 1 -5.54213,-2.846157 65.0119,46.680061 45 0 1 -5.40109,-3.320462 65.0119,46.680061 45 0 1 -5.20597,-3.761142 65.0119,46.680061 45 0 1 -4.95894,-4.163813 65.0119,46.680061 45 0 1 -3.32704,-3.161146 65.0119,46.680061 45 0 1 -4.42472,-4.753585 65.0119,46.680061 45 0 1 -4.05128,-5.036413 65.0119,46.680061 45 0 1 -3.6369,-5.26808 65.0119,46.680061 45 0 1 -3.18562,-5.447496 65.0119,46.680061 45 0 1 -2.70365,-5.57283 65.0119,46.680061 45 0 1 -2.19391,-5.641892 65.0119,46.680061 45 0 1 -1.66224,-5.654682 65.0119,46.680061 45 0 1 -1.11413,-5.611564 65.0119,46.680061 45 0 1 -0.22545,-2.238122 z"
       id="path4528"
       inkscape:connector-curvature="0" />
    <path
       style="opacity:1;fill:#808080;fill-opacity:1;fill-rule:nonzero;stroke:#000000;stroke-width:3;stroke-linejoin:miter;stroke-miterlimit:4;stroke-dasharray:none;stroke-opacity:1"
       d="m 132.94311,19.042077 a 65.0119,46.680061 45 0 0 0.22545,2.238121 65.0119,46.680061 45 0 0 1.11413,5.611564 65.0119,46.680061 45 0 0 1.66224,5.654682 65.0119,46.680061 45 0 0 2.19391,5.641894 65.0119,46.680061 45 0 0 2.70365,5.572829 65.0119,46.680061 45 0 0 3.18562,5.447495 65.0119,46.680061 45 0 0 3.6369,5.268081 65.0119,46.680061 45 0 0 4.05128,5.036412 65.0119,46.680061 45 0 0 4.42471,4.75359 65.0119,46.680061 45 0 0 3.32704,3.161145 65.0119,46.680061 45 0 0 4.95894,4.163813 65.0119,46.680061 45 0 0 5.20597,3.761137 65.0119,46.680061 45 0 0 5.40109,3.320462 65.0119,46.680061 45 0 0 5.54214,2.846157 65.0119,46.680061 45 0 0 5.62763,2.344825 65.0119,46.680061 45 0 0 5.65688,1.817904 65.0119,46.680061 45 0 0 5.62984,1.274905 65.0119,46.680061 45 0 0 3.84518,0.498053 48.380954,48.380954 0 0 0 0.23313,-0.21121 l 0.0241,-0.02412 a 48.380954,48.380954 0 0 0 -0.042,-68.414895 48.380954,48.380954 0 0 0 -68.41452,0.02997 48.380954,48.380954 0 0 0 -0.19332,0.207176 z"
       id="path4523"
       inkscape:connector-curvature="0" />
  </g>
</svg>
